<svg width="40" height="40" viewBox="0 0 512 512" fill="none" class="ionicon" xmlns="http://www.w3.org/2000/svg">
    <path d="M3 1C1.89543 1 1 1.89543 1 3V37C1 38.1046 1.89543 39 3 39H18.9C20.0046 39 20.9 38.1046 20.9 37V3C20.9 1.89543 20.0046 1 18.9 1H15.6631V2H6.23676V1H3Z"
          opacity="0.15" fill-rule="evenodd" clip-rule="evenodd" fill="url(#paint0_linear)"/>
    <!-- cores -->
    <path d="M256 80V48M336 80V48M176 80V48M256 464v-32M336 464v-32M176 464v-32M432 256h32M432 336h32M432 176h32M48 256h32M48 336h32M48 176h32"
          fill="none" stroke="url(#paint1_linear)" stroke-linecap="round" stroke-linejoin="round" stroke-width="32"/>
    <!-- board -->
    <rect x="80" y="80" width="352" height="352" rx="48" ry="48" fill="url(#paint1_linear)" fill-opacity="0.15" stroke="url(#paint1_linear)" stroke-linejoin="round" stroke-width="32"/>
    <!-- core spot -->
    <rect x="144" y="144" width="224" height="224" rx="16" ry="16" fill="url(#paint1_linear)" fill-opacity="0.15" stroke="url(#paint1_linear)" stroke-linejoin="round" stroke-width="32"/>
    <defs>
        <linearGradient id="paint1_linear" x1="1.59976" y1="8.08974e-07" x2="31.8368" y2="17.6727" gradientUnits="userSpaceOnUse">
            <stop offset="0.259336" stop-color="#6e78ff"/>
            <stop offset="1" stop-color="#6e78ff"/>
        </linearGradient>
    </defs>
</svg>